<?xml version="1.0" encoding="utf-8"?>
<!-- Generator: Adobe Illustrator 22.1.0, SVG Export Plug-In . SVG Version: 6.00 Build 0)  -->
<svg version="1.1" id="Layer_1" xmlns="http://www.w3.org/2000/svg" xmlns:xlink="http://www.w3.org/1999/xlink" x="0px" y="0px"
	 viewBox="0 0 669 764.8" style="enable-background:new 0 0 669 764.8;" xml:space="preserve">
<style type="text/css">
	.st0{opacity:0.75;}
	.st1{fill:#F70B0B;}
	.st2{font-family:'Chewy-Regular';}
	.st3{font-size:119.2488px;}
	.st4{font-size:119.6347px;}
	.st5{font-size:119.3499px;}
	.st6{font-size:119.0821px;}
	.st7{font-size:118.772px;}
	.st8{font-size:119.4805px;}
	.st9{font-size:119.3914px;}
	.st10{font-size:119.3023px;}
	.st11{fill:#20B9E2;}
</style>
<title>logo</title>
<g>
	<g id="Layer_2_1_">
		<g id="BioSite_Web_Layer">
			<g id="Logo_Layer">
				<g id="Graphic_Layer">
					
						<image style="overflow:visible;enable-background:new    ;" width="3264" height="2448" xlink:href="../../images/Dominic_Logo.png"  transform="matrix(0.2 0 0 0.22 0 235.79)">
					</image>
				</g>
				<g id="Logo_Text_Layer">
					<g class="st0">
						<text transform="matrix(0.3196 -0.3795 0.769 0.6392 212.7701 302.2106)" class="st1 st2 st3">T</text>
						<text transform="matrix(0.3584 -0.3385 0.6869 0.7267 224.91 286.8195)" class="st1 st2 st4">H</text>
						<text transform="matrix(0.3992 -0.2894 0.5888 0.8083 246.2503 266.9808)" class="st1 st2 st5">I</text>
						<text transform="matrix(0.4301 -0.25 0.5101 0.8601 261.4303 255.7303)" class="st1 st2 st6">S</text>
						<text transform="matrix(0.4713 -0.1805 0.361 0.9326 289.0597 240.3904)" class="st1 st2 st7">I</text>
						<text transform="matrix(0.4813 -0.1304 0.2707 0.9627 306.6104 233.4702)" class="st1 st2 st7">S</text>
						<text transform="matrix(0.4984 -3.987261e-02 7.974522e-02 0.9968 336.6603 225.5006)" class="st1 st2 st8">D</text>
						<text transform="matrix(0.4988 3.990236e-02 -6.982913e-02 0.9976 365.9901 222.9498)" class="st1 st2 st9">O</text>
						<text transform="matrix(0.4792 0.1198 -0.2496 0.9684 393.6101 223.9799)" class="st1 st2 st10">M</text>
						<text transform="matrix(0.4585 0.1994 -0.3987 0.9171 433.1398 234.9004)" class="st1 st2 st8">I</text>
						<text transform="matrix(0.4193 0.2596 -0.5291 0.8486 449.97 241.3799)" class="st1 st2 st10">N</text>
						<text transform="matrix(0.3795 0.3196 -0.6392 0.769 479.2997 259.9499)" class="st1 st2 st3">I</text>
						<text transform="matrix(0.3385 0.3584 -0.7267 0.6869 493.7504 271.5102)" class="st1 st2 st4">C</text>
					</g>
					<text transform="matrix(0.3196 -0.3795 0.769 0.6392 210.77 300.2104)" class="st11 st2 st3">T</text>
					<text transform="matrix(0.3584 -0.3385 0.6869 0.7267 222.9108 284.8203)" class="st11 st2 st4">H</text>
					<text transform="matrix(0.3992 -0.2894 0.5888 0.8083 244.2497 264.9803)" class="st11 st2 st5">I</text>
					<text transform="matrix(0.4301 -0.25 0.5101 0.8601 259.4302 253.7303)" class="st11 st2 st6">S</text>
					<text transform="matrix(0.4713 -0.1805 0.361 0.9326 287.0598 238.3904)" class="st11 st2 st7">I</text>
					<text transform="matrix(0.4813 -0.1304 0.2707 0.9627 304.6105 231.4704)" class="st11 st2 st7">S</text>
					<text transform="matrix(0.4984 -3.987261e-02 7.974522e-02 0.9968 334.6604 223.5004)" class="st11 st2 st8">D</text>
					<text transform="matrix(0.4988 3.990236e-02 -6.982913e-02 0.9976 363.9902 220.9501)" class="st11 st2 st9">O</text>
					<text transform="matrix(0.4792 0.1198 -0.2496 0.9684 391.6096 221.9795)" class="st11 st2 st10">M</text>
					<text transform="matrix(0.4585 0.1994 -0.3987 0.9171 431.1396 232.9003)" class="st11 st2 st8">I</text>
					<text transform="matrix(0.4193 0.2596 -0.5291 0.8486 447.9704 239.3801)" class="st11 st2 st10">N</text>
					<text transform="matrix(0.3795 0.3196 -0.6392 0.769 477.2999 257.9499)" class="st11 st2 st3">I</text>
					<text transform="matrix(0.3385 0.3584 -0.7267 0.6869 491.7503 269.5105)" class="st11 st2 st4">C</text>
				</g>
			</g>
		</g>
	</g>
</g>
</svg>
